{
  "version": "0.6.1",
  "modules": [
    {
      "plugin": "Core",
      "model": "AudioInterface",
      "params": [
        {"paramId": 0, "value": 0.5},
        {"paramId": 1, "value": 0.5}
      ],
      "data": {
        "audio": {
          "driver": 1,
          "device": 0,
          "sampleRate": 44100,
          "blockSize": 256
        }
      },
      "pos": [0, 0]
    },
    {
      "plugin": "Fundamental",
      "model": "VCO",
      "params": [
        {"paramId": 0, "value": 0.0},
        {"paramId": 1, "value": 0.5},
        {"paramId": 2, "value": 0.0},
        {"paramId": 3, "value": 0.5},
        {"paramId": 4, "value": 0.0},
        {"paramId": 5, "value": 0.5}
      ],
      "pos": [10, 0]
    },
    {
      "plugin": "Fundamental",
      "model": "VCF",
      "params": [
        {"paramId": 0, "value": 0.5},
        {"paramId": 1, "value": 0.5},
        {"paramId": 2, "value": 0.0},
        {"paramId": 3, "value": 0.5}
      ],
      "pos": [20, 0]
    },
    {
      "plugin": "Fundamental",
      "model": "ADSR",
      "params": [
        {"paramId": 0, "value": 0.1},
        {"paramId": 1, "value": 0.2},
        {"paramId": 2, "value": 0.5},
        {"paramId": 3, "value": 0.3}
      ],
      "pos": [30, 0]
    },
    {
      "plugin": "Fundamental",
      "model": "VCA",
      "params": [
        {"paramId": 0, "value": 0.0},
        {"paramId": 1, "value": 1.0}
      ],
      "pos": [40, 0]
    }
  ],
  "wires": [
    {
      "outputModuleId": 1,
      "outputId": 0,
      "inputModuleId": 2,
      "inputId": 0
    },
    {
      "outputModuleId": 2,
      "outputId": 0,
      "inputModuleId": 4,
      "inputId": 0
    },
    {
      "outputModuleId": 3,
      "outputId": 0,
      "inputModuleId": 4,
      "inputId": 1
    },
    {
      "outputModuleId": 4,
      "outputId": 0,
      "inputModuleId": 0,
      "inputId": 0
    },
    {
      "outputModuleId": 4,
      "outputId": 0,
      "inputModuleId": 0,
      "inputId": 1
    }
  ]
}
