{"version": "0.6.4", "modules": [{"plugin": "Core", "version": "0.6.4", "model": "AudioInterface", "params": [], "sumPolyInputs": true, "pos": [0, 0], "id": 65}, {"plugin": "Core", "version": "0.6.4", "model": "AudioInterfaceIn", "params": [], "data": {"IAAOnly": 0}, "sumPolyInputs": false, "pos": [3, 0], "id": 66}, {"plugin": "Core", "version": "0.6.4", "model": "HostSync", "params": [], "data": {"startWaitsForBeat": true, "mult": 1}, "sumPolyInputs": false, "pos": [6, 0], "id": 67}, {"plugin": "Core", "version": "0.6.4", "model": "MIDIToCVInterface", "params": [], "data": {"divisions": [24, 6], "midi": {"deviceName": "App Default", "channel": -1}, "channels": 1, "polyMode": 0, "lastPitch": 8192, "lastMod": 0}, "sumPolyInputs": false, "pos": [9, 0], "id": 68}, {"plugin": "Core", "version": "0.6.4", "model": "QuadMIDIToCVInterface", "params": [], "data": {"midi": {"deviceName": "App Default", "channel": -1}, "polyMode": 2}, "sumPolyInputs": false, "pos": [17, 0], "id": 69}, {"plugin": "Core", "version": "0.6.4", "model": "MIDICCInterface", "params": [{"paramId": 0, "value": 0.0}], "data": {"ccs": [0, 1, 2, 3, 4, 5, 6, 7, 8, 9, 10, 11], "midi": {"deviceName": "App Default", "channel": -1}}, "sumPolyInputs": false, "pos": [27, 0], "id": 70}, {"plugin": "Core", "version": "0.6.4", "model": "MIDITriggerInterface", "params": [{"paramId": 0, "value": 0.0}], "data": {"notes": [36, 37, 38, 39, 40, 41, 42, 43, 44, 45, 46, 47], "midi": {"deviceName": "App Default", "channel": -1}, "velocity": false}, "sumPolyInputs": false, "pos": [35, 0], "id": 71}, {"plugin": "Core", "version": "0.6.4", "model": "MIDIBasicInterfaceOut", "params": [], "data": {"midi": {"channel": 0}}, "sumPolyInputs": false, "pos": [43, 0], "id": 72}, {"plugin": "Core", "version": "0.6.4", "model": "MIDICCInterfaceOut", "params": [{"paramId": 0, "value": 0.0}], "data": {"ccs": [0, 0, 0, 0, 0, 0, 0, 0, 0, 0, 0, 0], "midi": {"channel": 0}, "sendZeroes": false}, "sumPolyInputs": false, "pos": [51, 0], "id": 73}, {"plugin": "Core", "version": "0.6.4", "model": "MIDITriggerInterfaceOut", "params": [{"paramId": 0, "value": 0.0}], "data": {"notes": [0, 0, 0, 0, 0, 0, 0, 0, 0, 0, 0, 0], "velocity": false, "midi": {"channel": 0}}, "sumPolyInputs": false, "pos": [59, 0], "id": 74}, {"plugin": "StellareModular-Link", "version": "1.1.0", "model": "Link2", "params": [{"paramId": 0, "value": 0.0, "toggle": 0}, {"paramId": 1, "value": 0.0, "toggle": 0}, {"paramId": 2, "value": 2.0, "toggle": 0}, {"paramId": 3, "value": 0.0, "toggle": 0}], "data": {"enable_start_stop": false}, "sumPolyInputs": false, "pos": [67, 0], "id": 75}, {"plugin": "Core", "version": "0.6.4", "model": "PolySplitter", "params": [], "sumPolyInputs": false, "pos": [71, 0], "id": 76}, {"plugin": "Core", "version": "0.6.4", "model": "PolyMerger", "params": [], "sumPolyInputs": false, "pos": [74, 0], "id": 77}, {"plugin": "Core", "version": "0.6.4", "model": "PolySummer", "params": [{"paramId": 0, "value": 1.0}], "sumPolyInputs": false, "pos": [77, 0], "id": 78}, {"plugin": "Bogaudio", "version": "1.1.35", "model": "Bogaudio-Mono", "params": [{"paramId": 0, "value": 0.20000000298023224, "toggle": 0}, {"paramId": 1, "value": 1.0, "toggle": 0}], "data": {}, "sumPolyInputs": false, "pos": [80, 0], "id": 79}, {"plugin": "Bogaudio", "version": "1.1.35", "model": "Bogaudio-Arp", "params": [{"paramId": 0, "value": 0.0, "toggle": 0}, {"paramId": 1, "value": 0.5, "toggle": 0}, {"paramId": 2, "value": 0.0, "toggle": 0}], "data": {"notes_immediate": false, "fixed_gate": false}, "sumPolyInputs": false, "pos": [83, 0], "id": 80}, {"plugin": "Bogaudio", "version": "1.1.35", "model": "Bogaudio-Assign", "params": [{"paramId": 0, "value": 1.0, "toggle": 0}], "data": {}, "sumPolyInputs": false, "pos": [86, 0], "id": 81}, {"plugin": "Bogaudio", "version": "1.1.35", "model": "Bogaudio-Unison", "params": [{"paramId": 0, "value": 1.0, "toggle": 0}, {"paramId": 1, "value": 0.0, "toggle": 0}], "data": {}, "sumPolyInputs": false, "pos": [89, 0], "id": 82}, {"plugin": "Bogaudio", "version": "1.1.35", "model": "Bogaudio-PolyCon8", "params": [{"paramId": 0, "value": 0.0, "toggle": 0}, {"paramId": 1, "value": 0.0, "toggle": 0}, {"paramId": 2, "value": 0.0, "toggle": 0}, {"paramId": 3, "value": 0.0, "toggle": 0}, {"paramId": 4, "value": 0.0, "toggle": 0}, {"paramId": 5, "value": 0.0, "toggle": 0}, {"paramId": 6, "value": 0.0, "toggle": 0}, {"paramId": 7, "value": 0.0, "toggle": 0}], "data": {"poly_channels": 1, "range_offset": 0.0, "range_scale": 10.0}, "sumPolyInputs": false, "pos": [92, 0], "id": 83}, {"plugin": "Bogaudio", "version": "1.1.35", "model": "Bogaudio-PolyOff8", "params": [{"paramId": 0, "value": 0.0, "toggle": 0}, {"paramId": 1, "value": 1.0, "toggle": 0}, {"paramId": 2, "value": 0.0, "toggle": 0}, {"paramId": 3, "value": 1.0, "toggle": 0}, {"paramId": 4, "value": 0.0, "toggle": 0}, {"paramId": 5, "value": 1.0, "toggle": 0}, {"paramId": 6, "value": 0.0, "toggle": 0}, {"paramId": 7, "value": 1.0, "toggle": 0}, {"paramId": 8, "value": 0.0, "toggle": 0}, {"paramId": 9, "value": 1.0, "toggle": 0}, {"paramId": 10, "value": 0.0, "toggle": 0}, {"paramId": 11, "value": 1.0, "toggle": 0}, {"paramId": 12, "value": 0.0, "toggle": 0}, {"paramId": 13, "value": 1.0, "toggle": 0}, {"paramId": 14, "value": 0.0, "toggle": 0}, {"paramId": 15, "value": 1.0, "toggle": 0}, {"paramId": 16, "value": 1.0, "toggle": 0}], "data": {"range_offset": 0.0, "range_scale": 10.0}, "sumPolyInputs": false, "pos": [95, 0], "id": 84}, {"plugin": "Bogaudio", "version": "1.1.35", "model": "Bogaudio-PolyMult", "params": [{"paramId": 0, "value": 1.0, "toggle": 0}], "data": {}, "sumPolyInputs": false, "pos": [103, 0], "id": 85}, {"plugin": "Bogaudio", "version": "1.1.35", "model": "Bogaudio-VCO", "params": [{"paramId": 0, "value": 0.0, "toggle": 0}, {"paramId": 1, "value": 0.0, "toggle": 0}, {"paramId": 2, "value": 0.0, "toggle": 0}, {"paramId": 3, "value": 0.0, "toggle": 0}, {"paramId": 4, "value": 0.0, "toggle": 0}, {"paramId": 5, "value": 1.0, "toggle": 0}, {"paramId": 6, "value": 0.0, "toggle": 0}], "data": {"poly_input": 0}, "sumPolyInputs": false, "pos": [106, 0], "id": 86}, {"plugin": "Bogaudio", "version": "1.1.35", "model": "Bogaudio-LFO", "params": [{"paramId": 0, "value": 0.0, "toggle": 0}, {"paramId": 1, "value": 0.0, "toggle": 0}, {"paramId": 2, "value": 0.0, "toggle": 0}, {"paramId": 3, "value": 0.0, "toggle": 0}, {"paramId": 4, "value": 0.0, "toggle": 0}, {"paramId": 5, "value": 1.0, "toggle": 0}], "data": {}, "sumPolyInputs": false, "pos": [116, 0], "id": 87}, {"plugin": "Bogaudio", "version": "1.1.35", "model": "Bogaudio-FMOp", "params": [{"paramId": 0, "value": 0.0, "toggle": 0}, {"paramId": 1, "value": 0.0, "toggle": 0}, {"paramId": 2, "value": 0.14142100512981415, "toggle": 0}, {"paramId": 3, "value": 0.31622999906539917, "toggle": 0}, {"paramId": 4, "value": 1.0, "toggle": 0}, {"paramId": 5, "value": 0.31622999906539917, "toggle": 0}, {"paramId": 6, "value": 0.0, "toggle": 0}, {"paramId": 7, "value": 0.0, "toggle": 0}, {"paramId": 8, "value": 1.0, "toggle": 0}, {"paramId": 9, "value": 0.0, "toggle": 0}, {"paramId": 10, "value": 0.0, "toggle": 0}, {"paramId": 11, "value": 0.0, "toggle": 0}], "data": {"linearLevel": false}, "sumPolyInputs": false, "pos": [126, 0], "id": 88}, {"plugin": "Bogaudio", "version": "1.1.35", "model": "Bogaudio-ADSR", "params": [{"paramId": 0, "value": 0.14142100512981415, "toggle": 0}, {"paramId": 1, "value": 0.31622999906539917, "toggle": 0}, {"paramId": 2, "value": 1.0, "toggle": 0}, {"paramId": 3, "value": 0.31622999906539917, "toggle": 0}, {"paramId": 4, "value": 0.0, "toggle": 0}], "data": {"invert": 1.0}, "sumPolyInputs": false, "pos": [136, 0], "id": 89}, {"plugin": "Bogaudio", "version": "1.1.35", "model": "Bogaudio-ADSR", "params": [{"paramId": 0, "value": 0.14142100512981415, "toggle": 0}, {"paramId": 1, "value": 0.31622999906539917, "toggle": 0}, {"paramId": 2, "value": 1.0, "toggle": 0}, {"paramId": 3, "value": 0.31622999906539917, "toggle": 0}, {"paramId": 4, "value": 0.0, "toggle": 0}], "data": {"invert": 1.0}, "sumPolyInputs": false, "pos": [139, 0], "id": 90}, {"plugin": "Bogaudio", "version": "1.1.35", "model": "Bogaudio-VCA", "params": [{"paramId": 0, "value": 0.80000001192092896, "toggle": 0}, {"paramId": 1, "value": 0.80000001192092896, "toggle": 0}, {"paramId": 2, "value": 0.0, "toggle": 0}], "data": {}, "sumPolyInputs": false, "pos": [142, 0], "id": 91}, {"plugin": "Bogaudio", "version": "1.1.35", "model": "Bogaudio-VCF", "params": [{"paramId": 0, "value": 0.22360999882221222, "toggle": 0}, {"paramId": 1, "value": 0.0, "toggle": 0}, {"paramId": 2, "value": 0.0, "toggle": 0}, {"paramId": 3, "value": 0.0, "toggle": 0}, {"paramId": 4, "value": 0.0, "toggle": 0}, {"paramId": 5, "value": 0.52223300933837891, "toggle": 0}], "data": {"bandwidthMode": "pitched"}, "sumPolyInputs": false, "pos": [145, 0], "id": 92}, {"plugin": "Bogaudio", "version": "1.1.35", "model": "Bogaudio-Noise", "params": [], "data": {"poly_channels": 1}, "sumPolyInputs": false, "pos": [155, 0], "id": 93}, {"plugin": "Bogaudio", "version": "1.1.35", "model": "Bogaudio-SampleHold", "params": [{"paramId": 0, "value": 0.0, "toggle": 0}, {"paramId": 1, "value": 0.0, "toggle": 0}, {"paramId": 2, "value": 0.0, "toggle": 0}, {"paramId": 3, "value": 0.0, "toggle": 0}, {"paramId": 4, "value": 0.0, "toggle": 0}, {"paramId": 5, "value": 0.0, "toggle": 0}], "data": {"poly_input": 0, "noise_type": 0, "range_offset": 1.0, "range_scale": 5.0}, "sumPolyInputs": false, "pos": [158, 0], "id": 94}, {"plugin": "Bogaudio", "version": "1.1.35", "model": "Bogaudio-Mix4", "params": [{"paramId": 0, "value": 0.90909093618392944, "toggle": 0}, {"paramId": 1, "value": 0.0, "toggle": 0}, {"paramId": 2, "value": 0.0, "toggle": 0}, {"paramId": 3, "value": 0.90909093618392944, "toggle": 0}, {"paramId": 4, "value": 0.0, "toggle": 0}, {"paramId": 5, "value": 0.0, "toggle": 0}, {"paramId": 6, "value": 0.90909093618392944, "toggle": 0}, {"paramId": 7, "value": 0.0, "toggle": 0}, {"paramId": 8, "value": 0.0, "toggle": 0}, {"paramId": 9, "value": 0.90909093618392944, "toggle": 0}, {"paramId": 10, "value": 0.0, "toggle": 0}, {"paramId": 11, "value": 0.0, "toggle": 0}, {"paramId": 12, "value": 0.90909093618392944, "toggle": 0}, {"paramId": 13, "value": 0.0, "toggle": 0}, {"paramId": 14, "value": 0.0, "toggle": 0}], "data": {"dim_decibels": 12.0, "poly_channel_offset": -1}, "sumPolyInputs": false, "pos": [161, 0], "id": 95}, {"plugin": "Bogaudio", "version": "1.1.35", "model": "Bogaudio-Pan", "params": [{"paramId": 0, "value": 0.0, "toggle": 0}, {"paramId": 1, "value": 0.0, "toggle": 0}], "data": {}, "sumPolyInputs": false, "pos": [176, 0], "id": 96}, {"plugin": "Bogaudio", "version": "1.1.35", "model": "Bogaudio-Mute8", "params": [{"paramId": 0, "value": 0.0, "toggle": 0}, {"paramId": 1, "value": 0.0, "toggle": 0}, {"paramId": 2, "value": 0.0, "toggle": 0}, {"paramId": 3, "value": 0.0, "toggle": 0}, {"paramId": 4, "value": 0.0, "toggle": 0}, {"paramId": 5, "value": 0.0, "toggle": 0}, {"paramId": 6, "value": 0.0, "toggle": 0}, {"paramId": 7, "value": 0.0, "toggle": 0}], "data": {"latching_cvs": false}, "sumPolyInputs": false, "pos": [179, 0], "id": 97}, {"plugin": "AudibleInstruments", "version": "1.0.0", "model": "Shades", "params": [{"paramId": 0, "value": 0.0044999998062849045, "toggle": 0}, {"paramId": 1, "value": 0.0030000000260770321, "toggle": 0}, {"paramId": 2, "value": 0.5, "toggle": 0}, {"paramId": 3, "value": 1.0, "toggle": 0}, {"paramId": 4, "value": 1.0, "toggle": 0}, {"paramId": 5, "value": 1.0, "toggle": 0}], "sumPolyInputs": false, "pos": [0, 1], "id": 98}, {"plugin": "Core", "version": "0.6.4", "model": "Notes", "params": [], "sumPolyInputs": false, "width": 150.0, "text": "text goes here", "pos": [189, 0], "id": -162094731}], "wires": [{"colorIndex": 3, "outputModuleId": 1, "outputId": 0, "inputModuleId": 33, "inputId": 0}, {"colorIndex": 1, "outputModuleId": 1, "outputId": 1, "inputModuleId": 33, "inputId": 1}, {"colorIndex": 2, "outputModuleId": 33, "outputId": 0, "inputModuleId": 0, "inputId": 0}, {"colorIndex": 0, "outputModuleId": 33, "outputId": 1, "inputModuleId": 0, "inputId": 1}], "transportModuleId": 10, "polyChannels": 1}