{"version": "0.6.4", "modules": [{"plugin": "Core", "version": "0.6.4", "model": "AudioInterface", "params": [], "sumPolyInputs": true, "pos": [59, 0], "id": 1}, {"plugin": "AudibleInstruments", "version": "1.0.0", "model": "Plaits", "params": [{"paramId": 0, "value": 0.0, "toggle": 0}, {"paramId": 1, "value": 0.0, "toggle": 0}, {"paramId": 2, "value": -4.0, "toggle": 0}, {"paramId": 3, "value": 0.5, "toggle": 0}, {"paramId": 4, "value": 0.50749999284744263, "toggle": 0}, {"paramId": 5, "value": 0.6739993691444397, "toggle": 0}, {"paramId": 6, "value": 0.52500015497207642, "toggle": 0}, {"paramId": 7, "value": 0.0, "toggle": 0}, {"paramId": 8, "value": -0.44400003552436829, "toggle": 0}, {"paramId": 9, "value": 0.0, "toggle": 0}, {"paramId": 10, "value": 0.0, "toggle": 0}], "data": {"lowCpu": false, "model": 3}, "sumPolyInputs": false, "pos": [0, 0], "id": 2}, {"plugin": "StellareModular", "version": "0.6.1", "model": "TuringMachine", "params": [{"paramId": 0, "value": 0.75950008630752563, "toggle": 0}, {"paramId": 1, "value": 0.60200005769729614, "toggle": 0}, {"paramId": 2, "value": 0.6935001015663147, "toggle": 0}, {"paramId": 3, "value": 0.77300012111663818, "toggle": 0}, {"paramId": 4, "value": 0.54949992895126343, "toggle": 0}, {"paramId": 5, "value": -0.2330000102519989, "toggle": 0}, {"paramId": 6, "value": 3.0, "toggle": 0}, {"paramId": 7, "value": 0.5, "toggle": 0}, {"paramId": 8, "value": 0.0}, {"paramId": 9, "value": 0.0, "toggle": 0}, {"paramId": 10, "value": 0.0, "toggle": 0}, {"paramId": 11, "value": 0.0, "toggle": 0}, {"paramId": 12, "value": 0.0, "toggle": 0}], "data": {"pulses_mode": 0}, "sumPolyInputs": false, "pos": [0, 1], "id": 3}, {"plugin": "Bogaudio", "version": "1.1.35", "model": "Bogaudio-LFO", "params": [{"paramId": 0, "value": -3.3735010623931885, "toggle": 0}, {"paramId": 1, "value": 1.0, "toggle": 0}, {"paramId": 2, "value": 0.0, "toggle": 0}, {"paramId": 3, "value": 0.0, "toggle": 0}, {"paramId": 4, "value": 0.0, "toggle": 0}, {"paramId": 5, "value": 1.0, "toggle": 0}], "data": {}, "sumPolyInputs": false, "pos": [22, 1], "id": 4}, {"plugin": "Bogaudio", "version": "1.1.35", "model": "Bogaudio-LFO", "params": [{"paramId": 0, "value": -1.4234999418258667, "toggle": 0}, {"paramId": 1, "value": 0.0, "toggle": 0}, {"paramId": 2, "value": 0.0, "toggle": 0}, {"paramId": 3, "value": 0.0, "toggle": 0}, {"paramId": 4, "value": 0.0, "toggle": 0}, {"paramId": 5, "value": 1.0, "toggle": 0}], "data": {}, "sumPolyInputs": false, "pos": [32, 1], "id": 5}, {"plugin": "Bogaudio", "version": "1.1.35", "model": "Bogaudio-VCF", "params": [{"paramId": 0, "value": 0.41111025214195251, "toggle": 0}, {"paramId": 1, "value": 0.36300006508827209, "toggle": 0}, {"paramId": 2, "value": 0.58950001001358032, "toggle": 0}, {"paramId": 3, "value": 0.19949996471405029, "toggle": 0}, {"paramId": 4, "value": 2.0, "toggle": 0}, {"paramId": 5, "value": 0.0092330919578671455, "toggle": 0}], "data": {"bandwidthMode": "pitched"}, "sumPolyInputs": false, "pos": [12, 0], "id": 6}, {"plugin": "ImpromptuModular", "version": "0.6.17", "model": "Clocked", "params": [{"paramId": 0, "value": 78.0, "toggle": 0}, {"paramId": 1, "value": 2.0, "toggle": 0}, {"paramId": 2, "value": 0.0, "toggle": 0}, {"paramId": 3, "value": 5.0, "toggle": 0}, {"paramId": 4, "value": 0.0, "toggle": 0}, {"paramId": 5, "value": 0.0, "toggle": 0}, {"paramId": 6, "value": 0.0, "toggle": 0}, {"paramId": 7, "value": 0.0, "toggle": 0}, {"paramId": 8, "value": 0.5, "toggle": 0}, {"paramId": 9, "value": 0.5, "toggle": 0}, {"paramId": 10, "value": 0.5, "toggle": 0}, {"paramId": 11, "value": 0.5, "toggle": 0}, {"paramId": 12, "value": 0.0, "toggle": 0}, {"paramId": 13, "value": 0.0, "toggle": 0}, {"paramId": 14, "value": 0.0}, {"paramId": 15, "value": 0.0, "toggle": 0}, {"paramId": 16, "value": 0.0, "toggle": 0}, {"paramId": 17, "value": 0.0, "toggle": 0}, {"paramId": 18, "value": 0.0, "toggle": 0}, {"paramId": 19, "value": 0.0, "toggle": 0}], "data": {"running": true, "panelTheme": 0, "expansion": 0, "displayDelayNoteMode": true, "bpmDetectionMode": false, "emitResetOnStopRun": false, "ppqn": 4, "resetClockOutputsHigh": true, "momentaryRunInput": false}, "sumPolyInputs": false, "pos": [42, 1], "id": 7}, {"plugin": "mscHack", "version": "1.0.2", "model": "PingPong_Widget", "params": [{"paramId": 0, "value": 0.40200003981590271, "toggle": 0}, {"paramId": 1, "value": 0.46800002455711365, "toggle": 0}, {"paramId": 2, "value": 0.51000022888183594, "toggle": 0}, {"paramId": 3, "value": 0.0, "toggle": 0}, {"paramId": 4, "value": 0.54900002479553223, "toggle": 0}, {"paramId": 5, "value": 0.0, "toggle": 0}, {"paramId": 6, "value": 0.0, "toggle": 0}, {"paramId": 7, "value": 0.11100000143051147, "toggle": 0}, {"paramId": 8, "value": 0.5559999942779541, "toggle": 0}, {"paramId": 9, "value": 0.0, "toggle": 0}, {"paramId": 10, "value": 0.0}], "data": {"ReverseState": true}, "sumPolyInputs": false, "pos": [22, 0], "id": 8}, {"plugin": "AudibleInstruments", "version": "1.0.0", "model": "Plaits", "params": [{"paramId": 0, "value": 0.0, "toggle": 0}, {"paramId": 1, "value": 0.0, "toggle": 0}, {"paramId": 2, "value": 0.0, "toggle": 0}, {"paramId": 3, "value": 0.58550035953521729, "toggle": 0}, {"paramId": 4, "value": 0.73749995231628418, "toggle": 0}, {"paramId": 5, "value": 0.28999996185302734, "toggle": 0}, {"paramId": 6, "value": -0.45600003004074097, "toggle": 0}, {"paramId": 7, "value": 0.52800029516220093, "toggle": 0}, {"paramId": 8, "value": 0.4259999692440033, "toggle": 0}, {"paramId": 9, "value": 0.0, "toggle": 0}, {"paramId": 10, "value": 0.0, "toggle": 0}], "data": {"lowCpu": false, "model": 3}, "sumPolyInputs": false, "pos": [37, 0], "id": 9}, {"plugin": "AudibleInstruments", "version": "1.0.0", "model": "Shades", "params": [{"paramId": 0, "value": 0.78200012445449829, "toggle": 0}, {"paramId": 1, "value": 0.60399895906448364, "toggle": 0}, {"paramId": 2, "value": 0.5, "toggle": 0}, {"paramId": 3, "value": 1.0, "toggle": 0}, {"paramId": 4, "value": 1.0, "toggle": 0}, {"paramId": 5, "value": 1.0, "toggle": 0}], "sumPolyInputs": false, "pos": [49, 0], "id": 11}, {"plugin": "AudibleInstruments", "version": "1.0.0", "model": "Branches", "params": [{"paramId": 0, "value": 0.5, "toggle": 0}, {"paramId": 1, "value": 0.58550041913986206, "toggle": 0}, {"paramId": 2, "value": 0.0, "toggle": 0}, {"paramId": 3, "value": 0.0, "toggle": 0}], "data": {"modes": [false, false]}, "sumPolyInputs": false, "pos": [30, 0], "id": 12}], "wires": [{"colorIndex": 1, "outputModuleId": 2, "outputId": 12, "inputModuleId": 1, "inputId": 7}, {"colorIndex": 0, "outputModuleId": 6, "outputId": 1, "inputModuleId": 2, "inputId": 0}, {"colorIndex": 1, "outputModuleId": 4, "outputId": 1, "inputModuleId": 5, "inputId": 0}, {"colorIndex": 2, "outputModuleId": 1, "outputId": 0, "inputModuleId": 5, "inputId": 3}, {"colorIndex": 0, "outputModuleId": 5, "outputId": 0, "inputModuleId": 7, "inputId": 0}, {"colorIndex": 1, "outputModuleId": 4, "outputId": 4, "inputModuleId": 1, "inputId": 1}, {"colorIndex": 2, "outputModuleId": 4, "outputId": 4, "inputModuleId": 1, "inputId": 3}, {"colorIndex": 3, "outputModuleId": 3, "outputId": 1, "inputModuleId": 1, "inputId": 0}, {"colorIndex": 0, "outputModuleId": 5, "outputId": 0, "inputModuleId": 7, "inputId": 1}, {"colorIndex": 2, "outputModuleId": 6, "outputId": 2, "inputModuleId": 7, "inputId": 2}, {"colorIndex": 2, "outputModuleId": 7, "outputId": 0, "inputModuleId": 9, "inputId": 0}, {"colorIndex": 0, "outputModuleId": 8, "outputId": 0, "inputModuleId": 9, "inputId": 1}, {"colorIndex": 3, "outputModuleId": 9, "outputId": 1, "inputModuleId": 0, "inputId": 0}, {"colorIndex": 1, "outputModuleId": 9, "outputId": 1, "inputModuleId": 0, "inputId": 1}, {"colorIndex": 3, "outputModuleId": 2, "outputId": 12, "inputModuleId": 8, "inputId": 7}, {"colorIndex": 2, "outputModuleId": 2, "outputId": 13, "inputModuleId": 8, "inputId": 0}, {"colorIndex": 3, "outputModuleId": 6, "outputId": 3, "inputModuleId": 10, "inputId": 1}, {"colorIndex": 1, "outputModuleId": 1, "outputId": 1, "inputModuleId": 8, "inputId": 2}, {"colorIndex": 2, "outputModuleId": 2, "outputId": 13, "inputModuleId": 8, "inputId": 3}, {"colorIndex": 0, "outputModuleId": 10, "outputId": 1, "inputModuleId": 1, "inputId": 5}, {"colorIndex": 3, "outputModuleId": 10, "outputId": 3, "inputModuleId": 8, "inputId": 5}, {"colorIndex": 1, "outputModuleId": 3, "outputId": 4, "inputModuleId": 8, "inputId": 4}, {"colorIndex": 2, "outputModuleId": 4, "outputId": 3, "inputModuleId": 8, "inputId": 1}], "transportModuleId": 6, "polyChannels": 1}